# Exported from Wings 3D 0.98.32a
mtllib sphere4.mtl
o cube1
#26 vertices, 24 faces
v -0.55555556 -0.55555556 0.55555556
v -0.55555556 0.55555556 0.55555556
v 0.55555556 0.55555556 0.55555556
v 0.55555556 -0.55555556 0.55555556
v -0.55555556 -0.55555556 -0.55555556
v -0.55555556 0.55555556 -0.55555556
v 0.55555556 0.55555556 -0.55555556
v 0.55555556 -0.55555556 -0.55555556
v -0.75000000 0.0000000e+0 0.75000000
v 0.0000000e+0 -0.75000000 0.75000000
v -0.75000000 -0.75000000 0.0000000e+0
v 0.0000000e+0 0.75000000 0.75000000
v -0.75000000 0.75000000 0.0000000e+0
v 0.75000000 0.0000000e+0 0.75000000
v 0.75000000 0.75000000 0.0000000e+0
v 0.75000000 -0.75000000 0.0000000e+0
v -0.75000000 0.0000000e+0 -0.75000000
v 0.0000000e+0 -0.75000000 -0.75000000
v 0.0000000e+0 0.75000000 -0.75000000
v 0.75000000 0.0000000e+0 -0.75000000
v 0.0000000e+0 0.0000000e+0 1.00000000
v 0.0000000e+0 -1.00000000 0.0000000e+0
v -1.00000000 0.0000000e+0 0.0000000e+0
v 0.0000000e+0 1.00000000 0.0000000e+0
v 1.00000000 0.0000000e+0 0.0000000e+0
v 0.0000000e+0 0.0000000e+0 -1.00000000
vn -0.57735027 -0.57735027 0.57735027
vn -0.57735027 0.57735027 0.57735027
vn 0.57735027 0.57735027 0.57735027
vn 0.57735027 -0.57735027 0.57735027
vn -0.57735027 -0.57735027 -0.57735027
vn -0.57735027 0.57735027 -0.57735027
vn 0.57735027 0.57735027 -0.57735027
vn 0.57735027 -0.57735027 -0.57735027
vn -0.70710678 0.0000000e+0 0.70710678
vn 0.0000000e+0 -0.70710678 0.70710678
vn -0.70710678 -0.70710678 0.0000000e+0
vn 0.0000000e+0 0.70710678 0.70710678
vn -0.70710678 0.70710678 0.0000000e+0
vn 0.70710678 0.0000000e+0 0.70710678
vn 0.70710678 0.70710678 0.0000000e+0
vn 0.70710678 -0.70710678 0.0000000e+0
vn -0.70710678 0.0000000e+0 -0.70710678
vn 0.0000000e+0 -0.70710678 -0.70710678
vn 0.0000000e+0 0.70710678 -0.70710678
vn 0.70710678 0.0000000e+0 -0.70710678
vn 0.0000000e+0 0.0000000e+0 1.00000000
vn 0.0000000e+0 -1.00000000 0.0000000e+0
vn -1.00000000 0.0000000e+0 0.0000000e+0
vn 0.0000000e+0 1.00000000 0.0000000e+0
vn 1.00000000 0.0000000e+0 0.0000000e+0
vn 0.0000000e+0 0.0000000e+0 -1.00000000
g cube1_default
usemtl default
f 1//1 10//10 21//21 9//9
f 1//1 11//11 22//22 10//10
f 2//2 9//9 21//21 12//12
f 3//3 12//12 21//21 14//14
f 4//4 10//10 22//22 16//16
f 4//4 14//14 21//21 10//10
f 5//5 11//11 23//23 17//17
f 6//6 13//13 24//24 19//19
f 6//6 17//17 23//23 13//13
f 7//7 15//15 25//25 20//20
f 7//7 19//19 24//24 15//15
f 8//8 20//20 25//25 16//16
f 9//9 23//23 11//11 1//1
f 12//12 24//24 13//13 2//2
f 13//13 23//23 9//9 2//2
f 14//14 25//25 15//15 3//3
f 15//15 24//24 12//12 3//3
f 16//16 22//22 18//18 8//8
f 16//16 25//25 14//14 4//4
f 17//17 26//26 18//18 5//5
f 18//18 22//22 11//11 5//5
f 18//18 26//26 20//20 8//8
f 19//19 26//26 17//17 6//6
f 20//20 26//26 19//19 7//7
